Superstar genetic engineers Clive and Elsa specialize in splicing DNA from different animals to create incredible hybrids. Now they want to use human DNA in a hybrid that could revolutionize science and medicine. But, when the company that funds their research forbids it, Clive and Elsa secretly take their boldest experimentation underground -- risking their careers by pushing the boundaries of science to serve their own curiosity and ambition. The result is Dren, an amazing, strangely beautiful creature of uncommon intelligence and an array of unexpected physical developments. At first, Dren exceeds their wildest dreams. But as she grows and learns at an accelerated rate, her existence threatens to become their worst nightmare


Starring: Adrien Brody, Sarah Polley, David Hewlett, Amanda Brugel, Delphine Chanéac, Abigail Chu, Brandon McGibbon, Stephanie Baird
Director: Vincenzo Natali

 
http://www.imdb.com/title/tt1017460/

 
http://stpicz.com/5847_vlcsnap_2013_03_03_12h20m18s255_ypgs.png 
http://stpicz.com/6676_vlcsnap_2013_03_03_12h21m08s248_l3tr.png 
http://stpicz.com/1605_vlcsnap_2013_03_03_12h23m58s156_rlgw.png 
http://stpicz.com/7405_vlcsnap_2013_03_03_12h21m58s231_zdv3.png 
http://stpicz.com/0122_vlcsnap_2013_03_03_12h26m48s6_mz0f.png


General
Unique ID: 197634926207057695628511127551120950532 (0x94AF1A2CA7E26837E6839E42AE2AC504)
Complete name: D:Splice (2009) 720p MKV x264 DTS BRrip [Pioneer].mkv
Format: Matroska
Format version: Version 2
File size: 3.58 GiB
Duration: 1h 43mn
Overall bit rate: 4 929 Kbps
Writing application: HandBrake 0.9.8
Writing library: libmkv 0.6.5

Video
ID: 1
Format: AVC
Format/Info: Advanced Video Codec
Format profile: High@L4.0
Format settings, CABAC: Yes
Format settings, ReFrames: 5 frames
Codec ID: V_MPEG4/ISO/AVC
Duration: 1h 43mn
Bit rate: 3 322 Kbps
Width: 1 280 pixels
Height: 720 pixels
Display aspect ratio: 16:9
Frame rate mode: Constant
Frame rate: 23.976 fps
Color space: YUV
Chroma subsampling: 4:2:0
Bit depth: 8 bits
Scan type: Progressive
Bits/(Pixel*Frame): 0.150
Stream size: 2.41 GiB (67%)
Writing library: x264 core 120
Language: English
Default: Yes
Forced: No
Color primaries: BT.709
Transfer characteristics: BT.709
Matrix coefficients: BT.709

Audio
ID: 2
Format: DTS
Format/Info: Digital Theater Systems
Mode: 16
Format settings, Endianness: Big
Codec ID: A_DTS
Duration: 1h 43mn
Bit rate mode: Constant
Bit rate: 1 509 Kbps
Channel(s): 6 channels
Channel positions: Front: L C R, Side: L R, LFE
Sampling rate: 48.0 KHz
Bit depth: 16 bits
Compression mode: Lossy
Stream size: 1.10 GiB (31%)
Default: Yes
Forced: No